<mxfile host="65bd71144e">
    <diagram id="PAXZH4BJvswPnAfIAGDS" name="Page-1">
        <mxGraphModel dx="244" dy="236" grid="1" gridSize="10" guides="1" tooltips="1" connect="1" arrows="1" fold="1" page="1" pageScale="1" pageWidth="850" pageHeight="1100" background="#ffffff" math="0" shadow="0">
            <root>
                <mxCell id="0"/>
                <mxCell id="1" parent="0"/>
                <mxCell id="2" value="" style="shape=flexArrow;endArrow=classic;startArrow=classic;html=1;" edge="1" parent="1">
                    <mxGeometry width="100" height="100" relative="1" as="geometry">
                        <mxPoint x="150" y="240" as="sourcePoint"/>
                        <mxPoint x="150" y="60" as="targetPoint"/>
                        <Array as="points">
                            <mxPoint x="150" y="150"/>
                        </Array>
                    </mxGeometry>
                </mxCell>
                <mxCell id="3" value="" style="shape=flexArrow;endArrow=classic;startArrow=classic;html=1;width=20;endSize=23.26923076923077;" edge="1" parent="1">
                    <mxGeometry width="100" height="100" relative="1" as="geometry">
                        <mxPoint x="170" y="220" as="sourcePoint"/>
                        <mxPoint x="130" y="90" as="targetPoint"/>
                    </mxGeometry>
                </mxCell>
                <mxCell id="5" value="" style="shape=flexArrow;endArrow=classic;startArrow=classic;html=1;movable=0;resizable=0;rotatable=0;deletable=0;editable=0;connectable=0;" edge="1" parent="1">
                    <mxGeometry width="100" height="100" relative="1" as="geometry">
                        <mxPoint x="150" y="240" as="sourcePoint"/>
                        <mxPoint x="150" y="70" as="targetPoint"/>
                    </mxGeometry>
                </mxCell>
                <mxCell id="6" value="direction" style="edgeLabel;html=1;align=center;verticalAlign=middle;resizable=0;points=[];" vertex="1" connectable="0" parent="5">
                    <mxGeometry x="0.1228" y="-8" relative="1" as="geometry">
                        <mxPoint as="offset"/>
                    </mxGeometry>
                </mxCell>
                <mxCell id="8" value="divertion" style="edgeLabel;html=1;align=center;verticalAlign=middle;resizable=0;points=[];" vertex="1" connectable="0" parent="5">
                    <mxGeometry x="-0.2166" y="-2" relative="1" as="geometry">
                        <mxPoint as="offset"/>
                    </mxGeometry>
                </mxCell>
                <mxCell id="7" value="" style="shape=flexArrow;endArrow=classic;html=1;" edge="1" parent="1">
                    <mxGeometry width="50" height="50" relative="1" as="geometry">
                        <mxPoint x="130" y="230" as="sourcePoint"/>
                        <mxPoint x="130" y="90" as="targetPoint"/>
                    </mxGeometry>
                </mxCell>
            </root>
        </mxGraphModel>
    </diagram>
</mxfile>